<svg height="608" viewBox="0 0 800 608" width="800" xmlns="http://www.w3.org/2000/svg"><g fill="none" fill-rule="evenodd"><path d="m15.6340502 38.7901348v61.1123596c0 5.6123596-1.04227 6.6516856-6.67052809 6.6516856h-2.29299403c-5.21135006 0-6.67052808-1.039326-6.67052808-6.6516856v-61.9438202c0-23.9044944 11.8818781-35.9606742 35.6456344-35.9606742 2.5014481 0 4.7944421.20786517 6.6705281.41573034 5.2113501.6235955 6.2536201 2.07865168 6.2536201 7.2752809v2.07865166c0 5.1966292-1.250724 6.2359551-6.4620741 5.4044944-2.501448-.2078652-4.585988-.4157303-6.4620741-.4157303-15.0086881 0-20.0115842 7.0674157-20.0115842 22.0337078zm80.3126949 69.8426962c-32.5188244 0-45.8598806-15.1741568-45.8598806-43.6516849v-19.3314607c0-29.1011236 15.2171422-43.6516854 45.8598806-43.6516854 32.3103709 0 45.4429729 15.1741573 45.4429729 43.6516854v19.3314607c0 29.1011236-15.217143 43.6516849-45.4429729 43.6516849zm29.8089219-43.6516849v-19.3314607c0-19.9550562-7.087436-28.8932584-29.8089219-28.8932584-23.1383943 0-30.2258304 8.9382022-30.2258304 28.8932584v19.3314607c0 19.9550561 7.5043441 28.8932584 30.2258304 28.8932584 22.7214859 0 29.8089219-8.9382023 29.8089219-28.8932584zm39.247257-54.252809 11.46497 72.752809c1.04227 8.3146067 4.16908 11.4325842 10.005792 11.4325842s8.963522-3.1179775 10.005792-11.4325842l9.38043-59.2415731c2.292994-14.75842693 7.087436-20.16292131 19.594677-20.16292131 11.881878 0 17.093228 5.19662921 19.594676 20.16292131l9.38043 59.2415731c1.04227 8.3146067 4.16908 11.4325842 10.005792 11.4325842 5.628258 0 8.963522-3.741573 10.005792-11.4325842l11.46497-72.752809c.833816-5.19662923 2.08454-6.65168541 7.712798-6.65168541h2.709903c5.21135 0 6.462074 1.03932584 5.628258 6.65168541l-11.464971 71.7134831c-3.12681 18.4999998-9.38043 26.1910108-26.05675 26.1910108-15.217142 0-21.679216-7.691011-24.389118-26.1910108l-8.129706-54.0449438c-1.04227-8.9382022-2.501448-11.0168539-6.462074-11.0168539s-5.628258 2.494382-6.670528 11.0168539l-8.129707 54.0449438c-2.709902 18.4999998-8.963522 26.1910108-24.180664 26.1910108-16.67632 0-22.92994-7.27528-26.05675-26.1910108l-11.256516-71.7134831c-.833816-5.61235957.416908-6.65168541 5.628258-6.65168541h2.501448c5.628258 0 6.878982 1.45505618 7.712798 6.65168541zm173.873661 3.4064944v52.7977528c0 11.6404494 4.16908 16.4213483 20.220038 16.4213483s19.80313-4.7808989 19.80313-16.4213483v-52.7977528c0-9.35393262 2.292994-11.64044948 11.673424-11.64044948h3.960626c9.38043 0 11.673424 2.28651686 11.673424 11.64044948v52.7977528c0 28.2696629-14.59178 41.9887637-47.110604 41.9887637-31.476555 0-47.527513-14.5505615-47.527513-41.9887637v-52.7977528c0-9.35393262 2.292994-11.64044948 11.673424-11.64044948h3.960626c9.380431 0 11.673425 2.28651686 11.673425 11.64044948zm80.521149 122.2247195v-90.8370791c0-30.9719101 19.80313-45.5224719 49.612052-45.5224719 33.144187 0 49.820507 15.1741573 49.820507 45.5224719v16.6292135c0 29.9325843-15.217142 46.7696626-43.775341 46.7696626-13.132602 0-22.721486-3.949438-28.558198-11.8483143v39.2865173c0 9.353932-2.292994 11.640449-11.673424 11.640449h-3.752172c-9.38043 0-11.673424-2.286517-11.673424-11.640449zm72.125084-73.5842701v-16.6292135c0-14.758427-4.16908-20.5786517-22.304578-20.5786517-17.71859 0-22.721486 6.2359551-22.721486 20.5786517v16.6292135c0 14.3426966 5.002896 20.5786517 22.721486 20.5786517s22.304578-6.2359551 22.304578-20.5786517zm38.413441 73.5842701v-90.8370791c0-30.9719101 19.80313-45.5224719 49.612052-45.5224719 33.144187 0 49.820507 15.1741573 49.820507 45.5224719v16.6292135c0 29.9325843-15.217142 46.7696626-43.77534 46.7696626-13.132603 0-22.721487-3.949438-28.558199-11.8483143v39.2865173c0 9.353932-2.292994 11.640449-11.673424 11.640449h-3.752172c-9.38043 0-11.673424-2.286517-11.673424-11.640449zm72.125085-73.5842701v-16.6292135c0-14.758427-4.16908-20.5786517-22.304579-20.5786517-17.71859 0-22.721486 6.2359551-22.721486 20.5786517v16.6292135c0 14.3426966 5.002896 20.5786517 22.721486 20.5786517 17.718591 0 22.304579-6.2359551 22.304579-20.5786517zm130.550109-17.8764045c0 2.9101124-.208454 5.6123596-.416908 8.1067416-1.04227 9.3539326-3.752172 11.4325842-13.54951 11.4325842h-52.947317v3.1179776c0 10.8089887 8.129707 15.7977528 27.307475 15.7977528 7.712798 0 16.050958-1.0393259 25.222934-2.9101124 8.963522-1.8707865 11.048062.2078652 11.048062 9.9775281v2.2865169c0 9.1460678-1.876086 11.2247188-11.048062 13.5112358-6.878982 1.870787-15.217142 2.702247-25.431388 2.702247-37.313267 0-54.406495-13.7191008-54.406495-45.5224716v-16.6292135c0-31.1797753 16.259412-46.7696629 48.569783-46.7696629 30.434284 0 45.651426 14.9662921 45.651426 44.8988764zm-66.913735-5.6123595v3.1179775h41.065439v-3.1179775c0-10.6011236-6.878982-15.7977529-20.636946-15.7977529-13.54951 0-20.428493 5.1966293-20.428493 15.7977529zm105.327176.6235351v54.8763216c0 9.3539184-2.292994 11.6404314-11.673425 11.6404314h-3.960626c-9.38043 0-11.673424-2.286513-11.673424-11.6404314v-56.9549701c0-24.7359177 15.008688-37.8314035 43.358433-37.8314035h2.292994c8.129706 0 10.631154 3.53370252 10.631154 13.3033507v2.2865134c0 9.1460536-2.08454 10.6011075-10.631154 9.977513h-2.292994c-12.715694 0-16.050958 4.1572971-16.050958 14.3426749z" fill="#e1306c" transform="translate(0 460)"/><g transform="translate(150)"><path d="m437.470704 286.059141c-7.422058-8.078848-21.813039-8.078848-29.235097 0l-43.001064 46.742977-43.001063-46.742977c-7.422059-8.078848-21.813039-8.078848-29.235098 0l-43.001063 46.742977-43.001063-46.742977c-7.437684-8.093892-21.828665-8.063803-29.235098 0l-42.985438 46.742977-42.9854382-46.742977c-7.4220585-8.078848-21.8286647-8.078848-29.2507232 0l-57.62642495 62.659961c-7.15642695 7.777959-6.40640841 19.663042 1.67191634 26.538337 8.07832471 6.920428 20.43800541 6.168207 27.57880691-1.609752l42.9854379-46.742977 42.9854382 46.742977c7.422058 8.078847 21.828664 8.078847 29.250723 0l42.985438-46.742977 43.001063 46.742977c7.422059 8.078847 21.81304 8.078847 29.235098 0l43.001063-46.742977 43.001064 46.742977c7.422058 8.078847 21.813039 8.078847 29.235097 0l43.001064-46.742977 43.001063 46.742977c3.85947 4.19739 9.234603 6.34874 14.625362 6.34874 4.609489 0 9.234603-1.564618 12.93782-4.723944 8.09395-6.875294 8.828343-18.760377 1.671916-26.538336z" fill="#e1306c"/><path d="m437.470704 146.059141c-7.422058-8.078848-21.813039-8.078848-29.235097 0l-43.001064 46.742977-43.001063-46.742977c-7.422059-8.078848-21.813039-8.078848-29.235098 0l-43.001063 46.742977-43.001063-46.742977c-7.437684-8.093892-21.828665-8.063803-29.235098 0l-42.985438 46.742977-42.9854382-46.742977c-7.4220585-8.078848-21.8286647-8.078848-29.2507232 0l-57.62642495 62.659961c-7.15642695 7.777959-6.40640841 19.663042 1.67191634 26.538337 8.07832471 6.920428 20.43800541 6.168207 27.57880691-1.609752l42.9854379-46.742977 42.9854382 46.742977c7.422058 8.078847 21.828664 8.078847 29.250723 0l42.985438-46.742977 43.001063 46.742977c7.422059 8.078847 21.81304 8.078847 29.235098 0l43.001063-46.742977 43.001064 46.742977c7.422058 8.078847 21.813039 8.078847 29.235097 0l43.001064-46.742977 43.001063 46.742977c3.85947 4.19739 9.234603 6.34874 14.625362 6.34874 4.609489 0 9.234603-1.564618 12.93782-4.723944 8.09395-6.875294 8.828343-18.760377 1.671916-26.538336z" fill="#c13584"/><path d="m437.470704 6.05914078c-7.422058-8.07884737-21.813039-8.07884737-29.235097 0l-43.001064 46.74297722-43.001063-46.74297722c-7.422059-8.07884737-21.813039-8.07884737-29.235098 0l-43.001063 46.74297722-43.001063-46.74297722c-7.437684-8.09389178-21.828665-8.06380296-29.235098 0l-42.985438 46.74297722-42.9854382-46.74297722c-7.4220585-8.07884737-21.8286647-8.07884737-29.2507232 0l-57.62642495 62.65996142c-7.15642695 7.7779592-6.40640841 19.6630419 1.67191634 26.5383366 8.07832471 6.9204282 20.43800541 6.1682072 27.57880691-1.6097517l42.9854379-46.7429772 42.9854382 46.7429772c7.422058 8.0788469 21.828664 8.0788469 29.250723 0l42.985438-46.7429772 43.001063 46.7429772c7.422059 8.0788469 21.81304 8.0788469 29.235098 0l43.001063-46.7429772 43.001064 46.7429772c7.422058 8.0788469 21.813039 8.0788469 29.235097 0l43.001064-46.7429772 43.001063 46.7429772c3.85947 4.19739 9.234603 6.3487404 14.625362 6.3487404 4.609489 0 9.234603-1.5646185 12.93782-4.7239443 8.09395-6.8752947 8.828343-18.7603774 1.671916-26.5383366z" fill="#833ab4"/></g></g></svg>